# xmcd
#
# Track frame offsets: 
#        150
#        16865
#        35635
#        55807
#        87627
#        106090
#        128312
#        163162
#        182007
#        198152
#        212262
#
# Disc length: 3106 seconds
#
# Revision: 0
# Processed by: cddbd v1.5.2PL0 Copyright (c) Steve Scherf et al.
# Submitted via: ExactAudioCopy v0.90b4
#
DISCID=840c200b
DTITLE=Willie Murphy - I Got a Secret
DYEAR=2002
DGENRE=Blues
TTITLE0=Love in Vain
TTITLE1=Yes. It's Me and I'm in Love Again
TTITLE2=Love Potion #9
TTITLE3=Spanish Harlem
TTITLE4=TV Mama
TTITLE5=Come On In My Kitchen
TTITLE6=I've Got a Secret
TTITLE7=Nappy Head Blues
TTITLE8=Big Chief
TTITLE9=Who Will Buy the Wine?
TTITLE10=People Get Ready
EXTD=
EXTT0=
EXTT1=
EXTT2=
EXTT3=
EXTT4=
EXTT5=
EXTT6=
EXTT7=
EXTT8=
EXTT9=
EXTT10=
PLAYORDER=
